<mxfile host="Electron" modified="2023-10-04T02:41:20.931Z" agent="Mozilla/5.0 (Windows NT 10.0; Win64; x64) AppleWebKit/537.36 (KHTML, like Gecko) draw.io/21.1.2 Chrome/106.0.5249.199 Electron/21.4.3 Safari/537.36" etag="c_Kx-qjMiXRJ_n4xM04S" version="21.1.2" type="device">
  <diagram name="Page-1" id="eaF2VGEY4sQm3DZr2C3I">
    <mxGraphModel dx="453" dy="1778" grid="1" gridSize="10" guides="1" tooltips="1" connect="1" arrows="1" fold="1" page="1" pageScale="1" pageWidth="850" pageHeight="1100" math="1" shadow="0">
      <root>
        <mxCell id="0" />
        <mxCell id="1" parent="0" />
        <mxCell id="pisYS82IGQ-1Nxquucsf-3" style="edgeStyle=orthogonalEdgeStyle;rounded=0;orthogonalLoop=1;jettySize=auto;html=1;exitX=0.5;exitY=0;exitDx=0;exitDy=0;exitPerimeter=0;entryX=0.082;entryY=0.5;entryDx=0;entryDy=0;entryPerimeter=0;endArrow=classic;endFill=1;startArrow=classic;startFill=1;dashed=1;" parent="1" source="4R90moKRRT5ZWsfwEy1d-2" target="pisYS82IGQ-1Nxquucsf-1" edge="1">
          <mxGeometry relative="1" as="geometry">
            <mxPoint x="185" y="80" as="sourcePoint" />
            <mxPoint x="346" y="-10" as="targetPoint" />
            <Array as="points">
              <mxPoint x="185" y="-10" />
            </Array>
          </mxGeometry>
        </mxCell>
        <mxCell id="4R90moKRRT5ZWsfwEy1d-2" value="Bob" style="shape=umlActor;verticalLabelPosition=bottom;verticalAlign=top;html=1;outlineConnect=0;" parent="1" vertex="1">
          <mxGeometry x="170" y="50" width="30" height="60" as="geometry" />
        </mxCell>
        <mxCell id="pisYS82IGQ-1Nxquucsf-4" style="edgeStyle=orthogonalEdgeStyle;rounded=0;orthogonalLoop=1;jettySize=auto;html=1;exitX=0.5;exitY=0;exitDx=0;exitDy=0;exitPerimeter=0;entryX=0.875;entryY=0.5;entryDx=0;entryDy=0;entryPerimeter=0;endArrow=classic;endFill=1;startArrow=classic;startFill=1;dashed=1;" parent="1" source="4R90moKRRT5ZWsfwEy1d-3" target="pisYS82IGQ-1Nxquucsf-1" edge="1">
          <mxGeometry relative="1" as="geometry">
            <mxPoint x="605" y="80" as="sourcePoint" />
            <mxPoint x="460" y="-10" as="targetPoint" />
            <Array as="points">
              <mxPoint x="605" y="-10" />
            </Array>
          </mxGeometry>
        </mxCell>
        <mxCell id="4R90moKRRT5ZWsfwEy1d-3" value="Alice" style="shape=umlActor;verticalLabelPosition=bottom;verticalAlign=top;html=1;outlineConnect=0;" parent="1" vertex="1">
          <mxGeometry x="590" y="50" width="30" height="60" as="geometry" />
        </mxCell>
        <mxCell id="4R90moKRRT5ZWsfwEy1d-5" value="" style="endArrow=classic;html=1;rounded=0;" parent="1" edge="1">
          <mxGeometry width="50" height="50" relative="1" as="geometry">
            <mxPoint x="185" y="140" as="sourcePoint" />
            <mxPoint x="184.68" y="540" as="targetPoint" />
          </mxGeometry>
        </mxCell>
        <mxCell id="4R90moKRRT5ZWsfwEy1d-6" value="" style="endArrow=classic;html=1;rounded=0;startArrow=none;" parent="1" source="4R90moKRRT5ZWsfwEy1d-4" edge="1">
          <mxGeometry width="50" height="50" relative="1" as="geometry">
            <mxPoint x="394.57" y="120" as="sourcePoint" />
            <mxPoint x="394.57" y="540" as="targetPoint" />
          </mxGeometry>
        </mxCell>
        <mxCell id="4R90moKRRT5ZWsfwEy1d-7" value="" style="endArrow=classic;html=1;rounded=0;" parent="1" edge="1">
          <mxGeometry width="50" height="50" relative="1" as="geometry">
            <mxPoint x="605" y="140" as="sourcePoint" />
            <mxPoint x="604.5699999999999" y="540" as="targetPoint" />
          </mxGeometry>
        </mxCell>
        <mxCell id="4R90moKRRT5ZWsfwEy1d-10" value="Add contact \(PS_{\text{Alice}}\)" style="endArrow=classic;html=1;rounded=0;" parent="1" edge="1">
          <mxGeometry width="50" height="50" relative="1" as="geometry">
            <mxPoint x="190" y="190" as="sourcePoint" />
            <mxPoint x="390" y="190" as="targetPoint" />
          </mxGeometry>
        </mxCell>
        <mxCell id="pisYS82IGQ-1Nxquucsf-1" value="Out-of-Band exchange&lt;br&gt;of \(PS_{\text{Bob}}\) and \(PS_{\text{Alice}}\)." style="ellipse;shape=cloud;whiteSpace=wrap;html=1;" parent="1" vertex="1">
          <mxGeometry x="300" y="-80" width="190" height="140" as="geometry" />
        </mxCell>
        <mxCell id="pisYS82IGQ-1Nxquucsf-5" value="" style="endArrow=none;html=1;rounded=0;" parent="1" target="4R90moKRRT5ZWsfwEy1d-4" edge="1">
          <mxGeometry width="50" height="50" relative="1" as="geometry">
            <mxPoint x="394.56999999999994" y="120" as="sourcePoint" />
            <mxPoint x="394.56999999999994" y="540" as="targetPoint" />
          </mxGeometry>
        </mxCell>
        <mxCell id="4R90moKRRT5ZWsfwEy1d-4" value="Server" style="shape=cylinder3;whiteSpace=wrap;html=1;boundedLbl=1;backgroundOutline=1;size=15;" parent="1" vertex="1">
          <mxGeometry x="365" y="70" width="60" height="80" as="geometry" />
        </mxCell>
      </root>
    </mxGraphModel>
  </diagram>
</mxfile>
